PathFileType	4	(X/Y/Z)	1103211_Cal01.trc	
DataRate	CameraRate	NumFrames	NumMarkers	Units	OrigDataRate	OrigDataStartFrame	OrigNumFrames
128	128	6	46	mm	128	128	337
Frame#	Time    CLAV			RSHO			LSHO			C7			T10			RASI			LASI			RPSI			LPSI			LGTR			RGTR			LMFC			RMFC			LANK			RANK			LMMA			RMMA			LHEE			RHEE			LMT5			RMT5			LTOE			RTOE			RELB			RWRA			RWRB			RFIN			LELB			LWRB			LWRA			LFIN			RFM2			LFM2			LKNE			RKNE			RTP2			RTP3			RTA3			LTP2			LTP3			LBHD			RFHD			RBHD			LUPA			LFRA			RFRA
        X1	Y1	Z1	X3	Y3	Z3	X4	Y4	Z4	X5	Y5	Z5	X6	Y6	Z6	X8	Y8	Z8	X9	Y9	Z9	X10	Y10	Z10	X11	Y11	Z11	X12	Y12	Z12	X13	Y13	Z13	X16	Y16	Z16	X17	Y17	Z17	X22	Y22	Z22	X23	Y23	Z23	X24	Y24	Z24	X25	Y25	Z25	X26	Y26	Z26	X27	Y27	Z27	X28	Y28	Z28	X29	Y29	Z29	X30	Y30	Z30	X31	Y31	Z31	X32	Y32	Z32	X33	Y33	Z33	X34	Y34	Z34	X35	Y35	Z35	X36	Y36	Z36	X37	Y37	Z37	X38	Y38	Z38	X39	Y39	Z39	X44	Y44	Z44	X53	Y53	Z53	X58	Y58	Z58	X59	Y59	Z59	X61	Y61	Z61	X62	Y62	Z62	X65	Y65	Z65	X67	Y67	Z67	X68	Y68	Z68	X71	Y71	Z71	X72	Y72	Z72	X73	Y73	Z73	X74	Y74	Z74	X75	Y75	Z75	X77	Y77	Z77
127	0.42	189.44087	1375.28223	-47.86699	88.81657	1424.86304	89.1095	87.29659	1433.33521	-192.30983	49.76196	1429.47693	-46.76103	15.64187	1134.8147	-52.2343	180.82527	946.93677	61.52872	176.45915	953.06854	-165.834	0.22667	955.6275	-0.30904	-1.17106	954.60083	-98.40724	110.35983	868.93988	-216.94426	110.63748	858.11554	119.08063	64.18849	466.58469	-83.68312	66.36632	471.62256	-15.64079	57.57463	91.04667	-207.01848	55.91066	87.33083	108.50835	73.46251	98.6289	-121.30675	80.65456	92.8082	24.88185	-14.74522	59.92383	-159.31105	-15.90436	62.97877	60.12033	168.53951	30.77048	-243.63914	165.73738	40.86811	157.64584	212.9929	64.89195	-176.05669	214.53807	65.17024	91.02296	62.01848	1297.89417	347.62097	92.15344	1312.72571	592.62866	58.53603	1247.66992	586.96814	55.75516	1301.39392	667.02191	42.75279	1302.24854	-436.28943	36.18638	1264.02307	-685.60303	68.2648	1325.7124	-679.64343	29.50864	1320.55945	-758.8772	177.84236	717.35614	118.03227	167.22957	718.73669	-217.49083	78.54146	485.28204	-209.21046	89.19405	478.95367	109.00073	55.42955	268.95023	125.52127	54.6584	182.70755	114.44244	108.40002	232.77948	64.90822	65.94205	278.99918	-225.56041	62.54453	194.00363	-216.72841	74.52457	1608.26294	-128.68999	178.75523	1626.10632	38.96605	187.8441	1634.76782	-108.96245	63.15338	1394.07166	-292.78705	25.28731	1307.93726	-584.34241	45.59846	1294.77344	431.66376
128	0.42333	189.39708	1375.25928	-47.9088	88.8199	1424.86108	89.10628	87.26915	1433.37524	-192.32607	49.74413	1429.46655	-46.79164	15.63801	1134.81372	-52.22908	180.78371	946.93866	61.51312	176.44054	953.08435	-165.84602	0.19011	955.60266	-0.34299	-1.19724	954.59174	-98.43861	110.40762	868.92249	-217.02342	110.53149	858.10663	118.92081	64.14516	466.62317	-83.67998	66.38483	471.62872	-15.64647	57.56123	91.03664	-207.01582	55.90906	87.32541	108.5076	73.4221	98.66684	-121.30006	80.62436	92.83123	24.86003	-14.70574	59.92453	-159.30956	-15.90093	63.00367	60.10208	168.46764	30.76788	-243.64986	165.73755	40.88	157.65991	212.97386	64.92905	-176.08357	214.52077	65.19412	91.02797	61.96584	1297.85022	347.56494	92.10658	1312.72534	592.64148	58.53702	1247.64771	586.97186	55.74274	1301.36719	667.02399	42.75095	1302.24109	-436.28094	36.18368	1263.99194	-685.60278	68.24605	1325.71143	-679.64771	29.51237	1320.53333	-758.88373	177.79338	717.3714	118.04214	167.22324	718.77649	-217.50801	78.53525	485.29819	-209.2122	89.1785	478.98926	109.00778	55.4315	268.95023	125.52046	54.70189	182.68059	114.40909	108.36852	232.79312	64.90475	65.9678	278.99481	-225.60228	62.54144	194.00218	-216.73	74.5005	1608.21948	-128.69664	179.06993	1626.20166	39.01144	187.8084	1634.77271	-109.01845	63.13869	1394.06042	-292.78326	25.28217	1307.92053	-584.35504	45.58936	1294.71362	431.64008
129	0.42667	189.41743	1375.29895	-47.90044	88.77202	1424.8645	89.09355	87.24107	1433.3634	-192.3279	49.73717	1429.44885	-46.80138	15.60491	1134.81775	-52.21678	180.77834	947.03748	61.45805	176.36913	953.09924	-165.89241	0.16306	955.59235	-0.34988	-1.25092	954.59552	-98.43806	110.37549	868.93304	-217.02727	110.53638	858.09375	118.8791	64.07985	466.6554	-83.70262	66.33188	471.65329	-15.63213	57.55708	91.00533	-207.01515	55.88071	87.29942	108.48798	73.3459	98.70454	-121.30354	80.58722	92.8362	24.86336	-14.73891	59.90977	-159.32399	-15.88913	63.00235	60.14119	168.43259	30.8207	-243.60936	165.69576	40.89396	157.68941	212.97728	64.93134	-176.08177	214.49892	65.22031	91.03255	61.95419	1297.82324	347.56293	92.07492	1312.72534	592.62665	58.53178	1247.60132	586.93066	55.70062	1301.34595	667.04541	42.71191	1302.22107	-436.26526	36.18065	1263.94934	-685.60474	68.24477	1325.70789	-679.64978	29.50313	1320.53027	-758.88629	177.78893	717.38013	118.03816	167.16409	718.81494	-217.51363	78.47572	485.32492	-209.19588	89.1546	479.01755	108.99379	55.40225	268.96371	125.52655	54.6548	182.69341	114.41331	108.34875	232.83282	64.91016	65.90674	279.06256	-225.58388	62.51695	194.04036	-216.7394	74.5377	1608.29504	-128.61882	178.74434	1626.13074	38.94849	187.78978	1634.81421	-109.02544	62.85471	1394.20569	-292.57166	25.27279	1307.90381	-584.38745	45.58105	1294.72119	431.65125
130	0.43	189.41954	1375.30066	-47.8987	88.76242	1424.85413	89.10263	87.23521	1433.36682	-192.33116	49.69014	1429.41931	-46.76796	15.54522	1134.797	-52.20787	180.76921	947.05048	61.45329	176.36076	953.09894	-165.89684	0.15203	955.55151	-0.35652	-1.26027	954.56793	-98.44447	110.355	868.95703	-217.05049	110.56396	858.13	119.05293	64.06946	466.65704	-83.70412	66.28221	471.63058	-15.64891	57.49557	91.05425	-206.99339	55.88177	87.28944	108.49615	73.33321	98.70731	-121.30296	80.54462	92.84977	24.85628	-14.74693	59.90439	-159.28383	-15.89029	63.02957	60.12601	168.42523	30.80804	-243.62315	165.71768	40.90199	157.65359	212.96819	64.94964	-176.0807	214.48576	65.22575	91.03383	61.92039	1297.80725	347.582	92.0636	1312.71106	592.62842	58.45686	1247.56592	586.96399	55.70271	1301.32898	667.03632	42.70392	1302.1842	-436.26202	36.15861	1263.95996	-685.59296	68.19814	1325.70422	-679.65643	29.49495	1320.49194	-758.88293	177.75499	717.37469	118.00964	167.3439	718.89325	-217.44997	78.46988	485.32532	-209.19508	89.14684	479.0032	108.9982	55.39638	268.95706	125.52785	54.69107	182.68492	114.42313	108.34311	232.83705	64.91542	65.92751	279.01724	-225.62529	62.51515	194.04153	-216.73994	74.39618	1608.23914	-128.68526	178.57683	1626.10608	38.92987	187.75459	1634.82593	-109.03923	63.06558	1394.10217	-292.79529	25.274	1307.86877	-584.37848	45.52643	1294.67761	431.67535
131	0.43333	189.41341	1375.27991	-47.88847	88.73022	1424.823	89.10994	87.24672	1433.34595	-192.33235	49.68977	1429.39368	-46.7552	15.58421	1134.80725	-52.2115	180.71233	947.0318	61.47702	176.33318	953.11664	-165.87584	0.10247	955.52325	-0.35547	-1.29673	954.5437	-98.446	110.32701	868.97577	-217.05482	110.5553	858.07996	119.05229	64.11276	466.62033	-83.70671	66.30699	471.6806	-15.66792	57.44283	91.09094	-207.01765	55.88208	87.27968	108.50156	73.37752	98.67105	-121.30843	80.54257	92.85002	24.85602	-14.73373	59.89637	-159.29314	-15.85534	62.98312	60.12787	168.39909	30.82218	-243.64699	165.70779	40.8921	157.68481	212.96089	64.95499	-176.04472	214.48247	65.21724	91.06473	61.95531	1297.78296	347.56677	92.03995	1312.68335	592.61542	58.44383	1247.56555	586.92871	55.68985	1301.30151	667.03076	42.75592	1302.14661	-436.24353	36.15701	1263.92542	-685.59436	68.1964	1325.67139	-679.65894	29.52554	1320.44373	-758.85248	177.75597	717.38879	118.02557	167.36723	718.9021	-217.44487	78.49071	485.33636	-209.21321	89.14328	479.00217	109.00198	55.37701	268.94275	125.54097	54.69119	182.69096	114.42622	108.33429	232.83067	64.9296	65.96631	279.04749	-225.6136	62.53371	194.04614	-216.74303	74.34088	1608.21777	-128.70064	178.56401	1626.10339	38.92778	187.75679	1634.83765	-109.03508	62.84271	1394.22156	-292.61902	25.27149	1307.81836	-584.38416	45.5276	1294.6084	431.63007
132	0.43667	189.41307	1375.28467	-47.88582	88.73256	1424.79797	89.10915	87.24812	1433.31714	-192.33784	49.69106	1429.38599	-46.75981	15.59503	1134.76428	-52.2231	180.68358	947.0387	61.47789	176.33318	953.13007	-165.87831	0.08113	955.50854	-0.37923	-1.306	954.47949	-98.47127	110.30289	868.95776	-217.07039	110.56267	858.06049	119.04318	64.1627	466.58145	-83.71092	66.33493	471.68152	-15.67754	57.47177	91.07336	-207.01811	55.89468	87.30205	108.50471	73.41727	98.61877	-121.31291	80.55675	92.85843	24.86618	-14.73393	59.88402	-159.30757	-15.88657	62.9448	60.11465	168.39832	30.81314	-243.64235	165.70645	40.89195	157.68661	212.94936	64.92323	-176.03389	214.47295	65.2328	91.0695	61.96548	1297.76721	347.56274	92.10239	1312.67615	592.62958	58.44632	1247.54346	586.92987	55.65811	1301.27454	667.03931	42.74508	1302.11243	-436.27802	36.16549	1263.90625	-685.54138	68.20345	1325.65442	-679.64691	29.53191	1320.42517	-758.85266	177.6996	717.37158	118.03568	167.17018	718.84863	-217.49956	78.5211	485.32367	-209.23036	89.15923	478.98923	109.02951	55.39055	268.9111	125.50845	54.70059	182.67206	114.42073	108.33479	232.82352	64.93057	65.97215	279.04123	-225.60387	62.51625	194.07491	-216.73781	74.32996	1608.21216	-128.70164	178.55809	1626.07056	38.93219	187.70125	1634.80457	-109.0407	62.79163	1394.24463	-292.58911	25.27401	1307.78357	-584.37988	45.52914	1294.59692	431.61914
